<?xml version="1.0" encoding="utf-8"?>
<!-- Generator: Adobe Illustrator 24.2.0, SVG Export Plug-In . SVG Version: 6.00 Build 0)  -->
<svg version="1.1" id="Layer_1" xmlns="http://www.w3.org/2000/svg" xmlns:xlink="http://www.w3.org/1999/xlink" x="0px" y="0px"
	 viewBox="0 0 595.276 500" enable-background="new 0 0 595.276 500" xml:space="preserve">
<g>
	<path fill="#08713D" d="M495.345,152.084c-15.339-14.828-9.885-37.837-9.885-37.837c-39.201-2.045-30.679-33.235-30.679-33.235
		c-5.284-0.511-24.713,3.75-60.164-10.226c-40.394-16.532-88.798-17.214-97.49-17.214s-56.926,0.682-97.32,17.214
		c-35.451,13.976-54.71,9.715-60.164,10.226c0,0,8.522,31.19-30.679,33.235c0,0,5.454,23.009-9.885,37.837
		C85.103,165.719,68.4,195.204,84.251,220.6c0,0-18.578,25.736,9.033,61.187c20.964,24.713,14.998,34.258,14.487,45.166
		c0,0,36.474,1.023,32.724,33.235c0,0,38.178-2.727,67.663,13.976c28.804,16.192,70.731,15.68,88.798,15.51
		c18.066,0,59.994,0.682,88.798-15.51c29.486-16.703,67.664-13.976,67.664-13.976c-3.75-32.213,32.724-33.235,32.724-33.235
		c-0.511-10.738-6.477-20.452,14.487-45.166c27.611-35.451,9.033-61.187,9.033-61.187
		C525.853,195.204,509.32,165.719,495.345,152.084z"/>
	<path fill="#FFFFFF" d="M302.41,379.958h-5.113h-5.113c-22.498,0-55.051-1.534-78.571-14.828
		c-20.793-11.76-46.359-12.953-56.585-12.953c-3.409,0-5.454,0.17-5.624,0.17l-2.045,0.17l0.17-2.045
		c0.852-7.67-0.682-14.146-4.943-18.919c-8.351-9.544-23.861-10.226-24.032-10.226h-1.704v-1.704c0-1.704,0.341-3.238,0.511-4.943
		c1.193-8.351,2.216-17.214-13.635-35.962c-23.35-29.997-12.101-53.176-9.204-58.119c-14.998-25.566,3.068-53.517,14.658-64.936
		c13.465-13.124,8.692-33.406,8.692-33.747l-0.511-2.045l2.045-0.17c11.419-0.682,19.43-4.09,23.861-10.056
		c5.965-8.181,3.068-18.578,3.068-18.748l-0.511-1.875l2.045-0.17c1.023-0.17,2.386,0,4.261,0c1.704,0,3.75,0.17,6.136,0.17
		c13.976,0,28.804-3.068,45.166-9.544c37.496-15.339,82.321-16.192,91.013-16.192h0.852c8.692,0,53.517,0.852,91.013,16.192
		c16.362,6.477,31.19,9.544,45.166,9.544c2.386,0,4.431-0.17,6.136-0.17c1.875-0.17,3.238-0.17,4.261,0l2.045,0.17l-0.511,1.875
		c0,0.17-2.727,10.567,3.068,18.748c4.431,6.136,12.442,9.544,23.861,10.056l2.045,0.17l-0.511,2.045
		c0,0.17-4.772,20.623,8.692,33.747c11.76,11.419,29.656,39.541,14.658,64.936c2.897,4.943,14.146,28.122-9.204,58.119
		c-16.021,18.748-14.828,27.44-13.635,35.962c0.17,1.704,0.511,3.238,0.511,4.943l0.17,1.704h-1.704
		c-0.17,0-15.68,0.511-24.032,10.226c-4.09,4.772-5.795,11.249-4.943,18.919l0.17,2.045l-2.045-0.17c0,0-2.045-0.17-5.624-0.17
		c-10.056,0-35.792,1.193-56.585,12.953C357.632,378.424,324.908,379.958,302.41,379.958z M297.297,376.549h5.113
		c14.146,0,51.472,0,76.867-14.317c21.475-12.101,47.893-13.294,58.119-13.294c1.534,0,2.897,0,3.75,0
		c-0.511-7.84,1.534-14.487,5.965-19.6c7.67-8.863,20.112-10.738,24.713-11.249c-0.17-1.023-0.17-2.045-0.341-3.068
		c-1.193-8.692-2.386-18.578,14.487-38.519c24.713-31.531,8.522-54.71,8.351-55.051l-0.682-0.852l0.511-1.023
		c14.828-23.861-2.386-50.79-13.635-61.698c-12.442-12.101-10.908-29.145-9.885-34.94c-11.59-1.023-19.771-4.772-24.543-11.419
		c-5.113-7.158-4.602-15.68-4.09-19.6c-0.511,0-1.193,0-1.875,0c-1.704,0-3.75,0.17-6.306,0.17c-14.487,0-29.656-3.238-46.529-9.885
		c-36.985-15.169-81.298-15.851-89.82-15.851h-0.852c-8.522,0-52.835,0.682-89.65,15.851c-16.873,6.647-32.042,9.885-46.529,9.885
		c-2.557,0-4.602-0.17-6.306-0.17c-0.682,0-1.363,0-1.875,0c0.682,3.92,1.193,12.271-4.09,19.6
		c-4.772,6.647-12.953,10.397-24.543,11.419c0.852,5.795,2.386,22.839-10.056,34.94c-11.249,10.908-28.463,37.837-13.635,61.698
		l0.511,1.023l-0.682,0.852c-0.682,1.023-16.192,23.52,8.522,55.051c16.873,19.771,15.51,29.656,14.317,38.519
		c-0.17,1.023-0.341,2.045-0.341,3.068c4.602,0.511,17.044,2.386,24.713,11.249c4.431,5.113,6.477,11.76,5.965,19.6
		c1.023,0,2.216,0,3.75,0c10.397,0,36.814,1.363,58.119,13.294c25.395,14.317,62.891,14.317,76.867,14.317H297.297z"/>
	<g>
		<path fill="#08713D" d="M60.389,317.408c0,7.84-1.193,15.339-3.238,22.498c62.38-13.124,147.258-21.134,240.487-21.134
			c93.399,0,178.107,8.011,240.487,21.134c-2.045-7.158-3.238-14.658-3.238-22.498c0-22.668,9.715-43.291,25.225-57.949
			c-63.743-16.021-157.654-26.247-262.473-26.247s-198.73,10.226-262.473,26.247C50.675,274.117,60.389,294.74,60.389,317.408z"/>
	</g>
	<path fill="#FFFFFF" d="M297.638,323.714c91.525,0,175.38,6.136,241.168,16.191c-60.505-13.805-146.235-22.498-241.168-22.498
		S116.975,326.1,56.469,339.906C122.258,329.679,206.113,323.714,297.638,323.714z"/>
	<path fill="#FFFFFF" d="M297.638,240.029c99.365,0,190.549,7.329,261.962,19.43c-65.789-16.703-158.847-27.27-261.962-27.27
		s-196.173,10.397-261.962,27.27C107.089,247.358,198.273,240.029,297.638,240.029z"/>
	<path fill="#FFFFFF" d="M92.602,298.83l1.364,9.033c0.17,0.852,0.341,1.534,0.341,2.216c0.17,1.023,0.341,1.704,0.511,1.875
		c0.17,0.511,0.682,1.023,1.364,1.363c0.341,0.17,1.534,0.341,3.409,0.511c1.363,0.17,2.216,0.511,2.386,1.193
		c0.17,0.852-0.341,1.534-1.534,1.704l-11.419,1.363l-10.397,1.875c-1.193,0.17-1.875-0.17-2.045-1.193c0-0.511,0-0.852,0.341-1.193
		c0.341-0.341,0.852-0.511,1.364-0.682c2.727-0.682,4.09-2.045,4.09-3.92c0-0.511,0-1.193-0.17-2.045l-4.261-28.463
		c-0.341-2.045-0.682-3.238-1.193-3.92c-0.682-0.852-1.875-1.193-3.75-1.023c-0.17,0-0.852,0-2.045,0
		c-0.341-0.17-0.511-0.341-0.511-0.852c-0.17-1.023,0.341-1.534,1.534-1.704c0,0,0.852-0.17,2.727-0.341
		c0.682-0.17,1.534-0.17,2.386-0.341c0.682-0.17,2.216-0.341,4.431-0.511c1.023-0.17,2.386-0.341,4.09-0.682
		c2.045-0.341,3.409-0.682,4.09-0.682c0.852-0.17,2.045-0.341,3.75-0.682c1.704-0.341,2.897-0.511,3.75-0.682
		c3.068-0.511,5.113-0.511,6.477-0.511c1.704,0,3.409,0.511,5.113,1.193c4.261,1.875,6.647,4.943,7.329,9.204
		c0.341,2.386,0,4.602-0.852,6.988c-0.852,2.386-2.216,4.261-4.09,5.965c-1.875,1.534-4.431,2.727-7.499,3.238l-1.534,0.17
		c-0.511,0-1.023,0-1.875,0c-0.682,0-1.363-0.17-2.045-0.17c0,0-0.682,0-1.704-0.17c-1.534-0.17-2.557-0.17-2.897-0.17
		c-0.511,0-0.682,0.341-0.852,1.023L92.602,298.83z M91.579,291.331c0.17,1.364,0.511,2.216,0.852,2.386
		c0.852,0.511,2.216,0.682,4.09,0.341c3.75-0.511,6.136-2.727,6.818-6.136c0.341-1.534,0.341-3.068,0.17-4.772
		c-0.341-2.557-1.534-4.772-3.409-6.477c-1.875-1.704-4.09-2.386-6.817-1.875c-1.534,0.17-2.557,0.852-3.068,1.704
		c-0.511,1.023-0.682,2.216-0.341,3.92L91.579,291.331z"/>
	<path fill="#FFFFFF" d="M157.539,288.604c0-0.852-0.17-1.193-0.17-1.363c-0.17-0.341-0.511-0.511-1.193-0.341l-15.851,1.704
		c-0.511,0-0.682,0.17-0.852,0.341c-0.17,0.17-0.17,0.682-0.17,1.534c0,0.17,0,0.511,0.17,1.023l1.193,10.056
		c0,0.682,0.17,1.193,0.17,1.534c0.17,0.852,0.341,1.875,0.852,3.068c0.17,1.023,1.704,1.534,4.431,1.704
		c1.363,0,2.216,0.341,2.386,1.363c0.17,0.852-0.341,1.534-1.534,1.704l-11.419,1.023l-10.567,1.534
		c-1.193,0.17-1.875-0.17-2.045-1.193c0-0.511,0.17-0.852,0.511-1.193c0.341-0.341,0.852-0.511,1.363-0.511
		c2.727-0.511,4.09-1.875,4.09-3.75c0-0.511,0-1.193,0-2.045l-3.068-28.463c-0.17-1.875-0.682-3.238-1.193-3.92
		c-0.511-0.682-1.875-1.193-3.579-1.193c-0.852,0-1.534,0-1.875-0.17c-0.341-0.17-0.682-0.511-0.852-1.023
		c0-0.511,0-1.023,0.341-1.193c0.341-0.17,0.682-0.341,1.193-0.341c0.511,0,2.386-0.17,6.136-0.511l5.454-0.511
		c0.682,0,1.534-0.17,2.727-0.341c1.193-0.17,2.045-0.341,2.557-0.341s1.363-0.17,2.557-0.341c1.193-0.17,2.045-0.341,2.727-0.341
		c1.023-0.17,1.704,0.17,1.875,1.023c0.17,0.511,0,0.852-0.17,1.023c-0.17,0.17-0.511,0.341-0.682,0.511
		c-1.023,0.341-2.386,0.852-4.09,1.704c-0.852,0.682-1.023,2.727-0.682,6.136l0.682,6.988c0.17,1.193,0.17,1.704,0.341,1.875
		c0.17,0.341,0.852,0.511,1.875,0.511c0.17,0,0.511,0,0.682,0l13.294-1.534c1.023-0.17,1.704-0.341,1.875-0.511
		c0.341-0.17,0.341-0.682,0.17-1.534l-1.023-9.374c-0.341-2.557-0.852-4.09-1.875-4.602c-0.511-0.341-1.363-0.511-2.557-0.511
		c-1.193-0.17-2.045-0.17-2.386-0.341c-0.341-0.17-0.682-0.511-0.682-0.852c-0.17-1.023,0.341-1.534,1.534-1.534l11.419-1.023
		l10.567-1.534c1.193-0.17,2.045,0.17,2.045,1.193c0,0.511-0.682,1.193-2.045,1.704c-1.193,0.341-2.045,0.511-2.557,0.852
		c-0.852,0.511-1.363,1.193-1.534,1.875c0,0.17,0,0.682,0,1.363c0,0.682,0,1.363,0,1.875l0.17,1.534l2.897,25.736
		c0,0.682,0.17,1.193,0.17,1.363c0.17,1.534,0.682,2.727,1.363,3.75c0.511,0.511,1.704,1.023,3.75,1.193
		c1.704,0,2.557,0.341,2.727,1.363c0,0.682-0.17,1.023-0.511,1.193c-0.341,0.17-1.023,0.341-2.045,0.511l-10.567,0.852
		l-10.738,1.534c-1.193,0.17-1.875-0.17-2.045-1.193c0-0.682,0.511-1.193,2.045-1.875c1.023-0.341,1.875-0.852,2.897-1.193
		c0.511-0.511,1.023-1.023,1.023-1.534c0.17-0.511,0.17-1.534,0-2.897L157.539,288.604z"/>
	<path fill="#FFFFFF" d="M185.149,269.174c-0.17-1.875-0.511-3.068-1.023-3.579c-0.682-0.682-1.875-1.193-3.75-1.193
		c-0.682,0-1.193-0.17-1.704-0.341c-0.511-0.17-0.682-0.511-0.682-1.023c0-0.852,0.511-1.363,1.704-1.534
		c3.238-0.17,5.113-0.341,5.795-0.341c1.704-0.17,3.409-0.17,5.624-0.17c0.852,0,3.409-0.341,7.84-0.682
		c0.511,0,1.534-0.17,2.897-0.341c1.193-0.17,1.875,0.341,1.875,1.193c0,0.682-0.511,1.193-1.875,1.534
		c-2.557,0.511-3.92,1.363-4.261,2.557c-0.17,1.193-0.341,2.386-0.17,3.409c0,0.341,0,0.852,0.17,1.534l1.193,16.873
		c0,1.193,0.17,1.875,0.17,2.386c0.17,2.727,0.682,5.284,1.363,7.329c0.682,2.216,2.216,3.75,4.431,4.772
		c2.045,0.852,4.261,1.364,6.817,1.193c2.897-0.17,5.454-1.023,7.499-2.386c2.557-1.534,3.92-3.579,4.261-6.136
		c0.17-1.363,0.17-3.409,0-6.306l-1.363-18.407c-0.17-1.875-0.17-3.068-0.341-3.579c-0.341-1.363-0.852-2.386-1.704-3.068
		c-0.852-0.682-1.875-0.852-3.238-0.852h-1.363c-0.341,0-0.852,0-1.193-0.17c-0.17-0.17-0.341-0.511-0.511-1.023
		c0-0.511,0.17-1.023,0.511-1.193c0.341-0.17,1.023-0.341,2.045-0.341l13.294-0.852c1.023,0,1.704,0.341,1.704,1.193
		c0,0.852-0.682,1.534-2.386,1.704c-2.045,0.17-3.238,1.363-3.409,3.238c-0.17,0.852-0.17,2.386,0,4.431l1.363,20.452
		c0.341,5.284-0.682,9.033-3.238,11.419c-3.409,3.238-8.351,5.113-14.828,5.624c-11.249,0.852-18.066-1.704-20.452-7.67
		c-1.023-2.386-1.534-4.772-1.704-7.499L185.149,269.174z"/>
	<path fill="#FFFFFF" d="M280.594,264.231c0,0.17,0,0.682,0.17,1.193c0,0.852-0.511,1.363-1.363,1.363
		c-0.511,0-1.534-0.511-2.727-1.875l-1.193-1.704c-1.363-1.875-3.238-3.238-5.454-4.09c-1.193-0.511-2.727-0.682-4.431-0.511
		c-3.238,0.17-5.965,1.193-8.522,3.068c-2.386,1.875-4.09,4.261-5.454,7.329c-1.363,3.068-1.875,6.647-1.875,10.738
		c0,1.534,0.17,2.897,0.341,3.92c0.341,3.92,1.875,7.499,4.261,10.738c3.238,4.261,7.329,6.306,12.442,6.136
		c5.284-0.17,9.374-3.409,12.271-9.885l0.852-1.193c0.17-0.17,0.511-0.341,1.023-0.341c1.023,0,1.534,0.511,1.534,1.875v1.023v3.068
		c0,0.511,0,1.023-0.17,1.704c0,0.511-0.17,0.852-0.341,1.193c-0.17,0.511-0.852,1.193-1.875,1.704
		c-3.92,2.386-8.522,3.75-14.317,3.92c-11.76,0.341-20.452-3.238-25.736-10.738c-0.852-1.193-1.534-2.386-2.216-3.92
		c-1.193-2.557-1.875-5.284-1.875-8.011c-0.17-4.772,1.193-9.204,3.92-12.953c2.557-3.75,6.136-6.647,10.908-8.692
		c4.772-2.045,9.715-3.238,14.998-3.409c4.261-0.17,8.011,0.17,11.249,1.023c1.023,0.17,1.534,0.511,1.875,0.852
		c0.17,0.341,0.511,1.023,0.682,2.045L280.594,264.231z"/>
	<path fill="#FFFFFF" d="M328.828,292.354c0,3.068,0.682,5.113,2.045,6.136c1.023,0.511,2.216,0.852,3.75,0.852
		c2.557,0,4.431-0.341,5.965-1.193c1.534-0.682,2.727-1.704,3.92-3.238l2.386-3.238c0.511-0.682,1.193-1.193,1.875-1.193
		c0.852,0,1.363,0.511,1.363,1.704c0,0.852-0.17,2.216-0.682,4.431l-0.682,4.261c0,0.852-0.341,1.363-1.193,1.363l-36.133-0.682
		c-1.193,0-1.704-0.511-1.875-1.534c0-0.511,0.17-0.852,0.682-1.193c0.341-0.341,0.852-0.341,1.363-0.341
		c2.727-0.17,4.261-1.363,4.602-3.238c0.17-0.511,0.17-1.193,0.17-2.045l0.511-28.633c0-1.875-0.17-3.238-0.682-4.09
		c-0.511-0.852-1.704-1.363-3.409-1.704c-0.852-0.17-1.363-0.17-1.704-0.341c-0.341-0.17-0.511-0.511-0.682-1.023
		c0-0.511,0.17-1.023,0.511-1.193c0.341-0.17,0.682-0.17,1.193-0.17c0.511,0,2.557,0.17,6.136,0.341l5.454,0.17
		c0.682,0,1.534,0,2.727,0s2.045,0,2.557,0c0.511,0,1.363,0,2.557,0s2.045,0,2.727,0c1.023,0,1.704,0.511,1.704,1.363
		c0,0.511,0,0.852-0.341,1.023c-0.17,0.17-0.511,0.17-0.682,0.341c-1.023,0.17-2.386,0.511-4.261,1.193
		c-0.852,0.682-1.363,2.557-1.363,6.136L328.828,292.354z"/>
	<path fill="#FFFFFF" d="M353.712,279.741c0.341-4.943,2.045-9.204,5.113-12.953c2.897-3.579,6.818-6.306,11.59-8.011
		c3.238-1.193,6.817-1.704,10.737-1.363c5.284,0.341,10.226,1.704,14.487,4.261c4.602,2.727,7.84,6.477,9.885,11.078
		c1.363,3.068,1.875,6.306,1.704,9.885c-0.17,4.261-1.534,8.011-3.75,11.419c-2.386,3.409-5.454,6.136-9.204,8.011
		c-4.261,2.216-9.033,3.068-14.317,2.727c-8.351-0.511-14.828-3.238-19.6-8.351c-2.216-2.386-3.92-5.113-4.943-8.011
		C354.052,285.877,353.541,282.809,353.712,279.741z M366.835,278.378c-0.341,4.09,0.17,7.84,1.363,11.59
		c1.023,3.238,2.557,5.965,4.431,8.181c2.216,2.557,4.943,3.92,8.181,4.09c5.113,0.341,8.863-2.727,11.59-8.863
		c1.193-2.727,1.875-5.965,2.045-9.715c0.341-5.624-0.511-10.908-2.727-15.51c-2.557-5.284-6.136-8.181-10.908-8.522
		c-5.113-0.341-9.033,2.557-11.76,9.033C367.687,271.731,367.006,274.799,366.835,278.378z"/>
	<path fill="#FFFFFF" d="M452.565,293.035l1.875-17.725c0.341-2.727,0.17-4.602-0.341-5.624c-0.511-1.023-1.704-1.875-3.579-2.386
		l-1.534-0.17c-0.852-0.17-1.193-0.511-1.193-1.363c0.17-1.023,1.023-1.364,2.897-1.193l13.124,1.363
		c1.363,0.17,2.045,0.682,1.875,1.534c-0.17,0.852-1.023,1.364-2.727,1.193h-0.511c-1.363-0.17-2.557,0.17-3.238,1.023
		s-1.193,2.045-1.193,3.579c0,0.511-0.17,1.023-0.17,1.704l-3.75,35.621c-0.17,0.852-0.341,1.363-0.511,1.704
		c-0.341,0.341-0.852,0.341-1.704,0.341s-1.363-0.341-1.875-0.852c-0.341-0.341-0.511-0.682-0.682-1.023
		c-0.511-0.511-0.682-1.023-1.023-1.534l-25.395-38.86l-2.557,24.032c-0.341,2.557-0.341,3.92-0.341,4.431
		c0,1.875,0.341,3.409,1.023,4.261c0.682,0.852,1.704,1.363,3.238,1.534c2.045,0.17,3.068,0.852,2.897,1.704
		c-0.17,1.193-0.852,1.534-2.386,1.363l-6.988-1.023l-7.158-0.511c-1.363-0.17-1.875-0.682-1.875-1.875
		c0-0.682,0.341-1.023,0.852-1.023c0.341-0.17,1.193-0.17,2.386,0c1.704,0.17,2.897-0.682,3.579-2.897
		c0.341-1.023,0.682-2.727,0.852-5.113l2.727-26.247c0.17-1.534,0.17-2.727-0.17-3.409c-0.341-1.023-1.193-1.704-2.557-2.045
		l-1.023-0.17c-0.682-0.17-1.193-0.341-1.193-0.341c-0.341-0.17-0.341-0.682-0.341-1.193c0.17-0.852,1.023-1.193,2.557-1.023
		l13.124,1.363c1.363,0.17,2.216,0.341,2.386,0.511c0.17,0.17,0.852,1.023,1.704,2.386L452.565,293.035z"/>
	<path fill="#FFFFFF" d="M513.752,304.114l-0.852,9.544c0,0.682-1.023,1.534-2.727,2.386c-1.363,0.682-3.579,1.363-6.647,1.704
		c-3.068,0.341-6.306,0.17-9.715-0.341c-5.113-0.852-9.544-2.386-13.465-4.602c-4.431-2.557-7.84-5.795-9.885-9.715
		c-2.045-3.92-2.727-8.181-2.045-12.953c0.511-3.75,1.875-6.988,4.09-9.715c3.238-4.09,7.67-6.988,13.124-8.692
		c5.113-1.704,10.567-2.045,16.021-1.193c0.852,0.17,1.363,0.341,2.045,0.341c1.534,0.341,3.238,0.852,5.284,1.534l2.386,0.852
		c1.534,0.682,2.727,1.193,3.068,1.875c0,0.17,0,0.682,0.17,1.534v2.386c0,0.682,0,1.364,0,2.216c0,0.682,0,1.193,0,1.363
		c-0.17,1.023-0.852,1.534-1.875,1.363c-0.682-0.17-1.534-1.193-2.727-3.409c-1.534-2.727-2.386-4.261-2.727-4.602
		c-1.193-1.193-3.238-2.045-6.136-2.557c-3.409-0.511-6.306-0.17-8.863,1.363c-5.454,2.897-8.692,8.351-10.056,16.362
		c-0.341,2.216-0.511,4.602-0.341,7.158c0.17,2.557,0.682,4.772,1.534,7.158c1.875,5.284,5.795,8.351,11.419,9.204
		c2.386,0.341,4.09,0.17,5.113-0.682c0.682-0.682,1.193-2.386,1.534-4.772l0.511-2.897c0.341-2.216,0.511-3.579,0.511-3.92
		c0-1.704-0.341-2.897-1.023-3.409c-0.852-0.682-2.045-1.023-3.75-1.363c-1.363-0.17-2.045-0.852-1.875-1.875
		c0.17-1.193,1.193-1.534,3.238-1.193l19.771,2.557c1.193,0.17,1.704,0.852,1.534,1.704c-0.17,0.852-1.023,1.363-2.557,1.363
		c-1.534,0.17-2.557,0.341-3.068,0.852C514.434,301.387,514.093,302.409,513.752,304.114z"/>
	<path fill="#08713D" d="M180.036,414.046h-3.238c-8.181,0-14.317,5.795-14.317,13.465c0,9.374,7.158,13.465,12.442,13.465h5.113
		v4.602h-5.113c-10.056,0-17.555-7.67-17.555-18.066c0-8.692,7.158-18.066,18.919-18.066h3.75L180.036,414.046L180.036,414.046z"/>
	<path fill="#08713D" d="M195.716,420.352c6.817,0,12.783,5.284,12.783,12.953c0,7.67-5.965,12.953-12.783,12.953
		s-12.783-5.284-12.783-12.953C182.763,425.635,188.729,420.352,195.716,420.352z M195.716,441.827c4.772,0,8.181-3.579,8.181-8.522
		c0-5.113-3.409-8.522-8.181-8.522s-8.181,3.579-8.181,8.522C187.535,438.418,190.944,441.827,195.716,441.827z"/>
	<path fill="#08713D" d="M212.76,445.747v-27.099c0-5.624,3.579-9.033,8.692-9.033h3.75v4.261h-3.238
		c-3.068,0-4.772,1.363-4.772,4.602v2.386h7.499v4.261h-7.499v20.452h-4.431V445.747z"/>
	<path fill="#08713D" d="M227.077,445.747v-27.099c0-5.624,3.75-9.033,8.692-9.033h3.75v4.261h-3.238
		c-3.068,0-4.772,1.363-4.772,4.602v2.386h7.499v4.261h-7.499v20.452h-4.431V445.747z"/>
	<path fill="#08713D" d="M248.381,437.566l-1.875-3.579l12.271-6.818c-1.534-1.534-2.897-2.386-5.624-2.386
		c-4.772,0-8.181,3.579-8.181,8.522c0,5.113,3.409,8.522,8.181,8.522c5.454,0,7.329-3.238,8.351-7.67l4.602,0.511
		c-0.511,6.477-5.795,11.59-12.953,11.59c-6.817,0-12.783-5.284-12.783-12.953c0-7.67,5.965-12.953,12.783-12.953
		c5.795,0,9.715,3.068,11.931,7.84L248.381,437.566z"/>
	<path fill="#08713D" d="M277.015,437.566l-1.875-3.579l12.271-6.818c-1.534-1.534-2.897-2.386-5.624-2.386
		c-4.772,0-8.181,3.579-8.181,8.522c0,5.113,3.409,8.522,8.181,8.522c5.454,0,7.329-3.238,8.351-7.67l4.602,0.511
		c-0.511,6.477-5.795,11.59-12.953,11.59c-6.817,0-12.783-5.284-12.783-12.953c0-7.67,5.965-12.953,12.783-12.953
		c5.795,0,9.715,3.068,11.931,7.84L277.015,437.566z"/>
	<path fill="#08713D" d="M335.986,414.046h-14.317c-0.852,0-1.023,0.341-1.023,0.682c0,0.511,0.511,1.193,1.193,2.045l14.998,19.259
		c0.852-1.193,1.193-2.557,1.193-4.602c0-2.557-0.852-4.772-3.409-7.67l3.238-3.409c3.238,3.238,4.943,6.477,4.943,11.078
		c0,3.238-1.023,6.136-2.727,8.692l4.261,5.454h-5.965l-1.875-2.045c-2.557,1.875-6.136,2.557-9.204,2.557
		c-8.522,0-15.169-6.136-15.169-14.658c0-4.772,2.045-9.374,6.136-12.101c-1.193-1.363-2.557-3.238-2.557-5.113
		c0-3.238,2.386-4.943,5.284-4.943h14.998V414.046z M321.158,423.249c-2.557,1.875-4.09,4.943-4.09,8.181
		c0,5.795,4.261,10.226,10.056,10.226c2.557,0,4.602-0.511,6.647-2.045L321.158,423.249z"/>
	<path fill="#08713D" d="M359.336,409.614h22.668v4.602h-8.863v31.531h-4.772v-31.531h-8.863v-4.602H359.336z"/>
	<path fill="#08713D" d="M391.719,437.566l-1.875-3.579l12.271-6.818c-1.534-1.534-2.897-2.386-5.624-2.386
		c-4.772,0-8.181,3.579-8.181,8.522c0,5.113,3.409,8.522,8.181,8.522c5.454,0,7.329-3.238,8.351-7.67l4.602,0.511
		c-0.511,6.477-5.795,11.59-12.953,11.59c-6.817,0-12.783-5.284-12.783-12.953c0-7.67,5.965-12.953,12.783-12.953
		c5.795,0,9.715,3.068,11.931,7.84L391.719,437.566z"/>
	<path fill="#08713D" d="M432.965,445.747v-13.976c0-4.602-3.92-6.988-8.011-6.988c-4.943,0-8.181,3.92-8.181,8.692
		c0,4.602,3.409,8.522,8.181,8.522c2.557,0,4.772-1.534,6.306-3.409v5.454c-1.875,1.363-3.579,2.386-6.647,2.386
		c-7.158,0-12.101-5.965-12.101-13.124c0-6.988,4.772-12.612,12.783-12.612c7.67,0,12.442,4.602,12.442,11.76v13.465h-4.772V445.747
		z"/>
	<path fill="#FFFFFF" d="M224.179,353.37c0.41-0.766,0.341-1.363,0.682-1.363c0.17,0,0.511,0.17,0.511,0.341
		c0.17,0.17,0.17,0.511,0.341,1.023c0.341,0.852,0.341,1.193,0.341,1.193c0.17,0.511,0.511,0.852,0.682,1.023
		c0.511,0.682,1.534,1.023,2.897,1.023c1.023,0,1.875-0.17,2.557-0.682c0.852-0.511,1.193-1.363,1.193-2.216
		c0-1.023-0.511-1.875-1.534-2.386c-0.511-0.341-1.193-0.511-1.875-0.852l-1.534-0.682c-1.193-0.511-2.216-1.193-3.068-2.045
		c-0.682-0.682-1.023-1.534-1.023-2.727c0-1.023,0.341-2.045,1.193-3.068c0.682-0.852,1.534-1.534,2.727-1.875
		c1.193-0.511,2.216-0.682,3.409-0.682c1.534,0,2.727,0.17,3.75,0.682c0.341,0,0.341,0.341,0.341,0.852v2.557
		c0,0.511-0.17,0.852-0.511,0.852c-0.341,0-0.682-0.17-0.852-0.682c-0.511-2.045-1.704-3.068-3.238-3.068
		c-0.852,0-1.534,0.17-2.216,0.682c-0.682,0.511-1.023,1.193-1.023,1.875c0,0.852,0.511,1.534,1.363,2.045
		c0.17,0,1.023,0.341,2.727,1.023c1.704,0.511,2.897,1.193,3.579,1.875c0.852,0.852,1.363,2.045,1.363,3.579
		c0,2.216-1.193,4.09-3.409,5.284c-1.023,0.682-2.386,0.852-3.92,0.852c-0.682,0-1.534-0.17-2.386-0.341
		c-1.023-0.17-1.875-0.341-2.386-0.682c-0.341-0.17-0.511-0.341-0.682-0.511c-0.079-0.165-0.17-0.341-0.17-0.341
		c0-0.17,0-0.341,0-0.511v-0.341c0,0-0.163-1.187,0-1.534C224.035,353.486,224.151,353.423,224.179,353.37z"/>
	<path fill="#FFFFFF" d="M241.564,348.768c0-0.511,0-0.852-0.17-1.023c-0.17-0.17-0.682-0.511-1.023-0.511h-0.17
		c-0.17,0-0.341,0-0.511-0.17c0,0-0.17-0.17-0.17-0.341c0-0.341,0.341-0.511,1.193-0.682c0.682-0.17,1.363-0.341,2.045-0.682
		c0.17-0.17,0.682-0.341,1.363-1.023c0.511-0.511,1.023-0.682,1.363-0.682c0.17,0,0.341,0,0.341,0.17c0,0.341,0,0.511,0,0.852v9.033
		c0,0.341,0,0.511,0,0.852c0,0.17,0,0.341,0,0.511c0,0.341,0.17,0.682,0.341,0.852c0.17,0,0.341,0.17,0.511,0.17l0.852,0.17
		c0.17,0,0.341,0,0.511,0.17c0,0,0.17,0.17,0.17,0.341c0,0.341-0.341,0.511-0.852,0.511h-6.988c-0.682,0-0.852-0.17-0.852-0.511
		c0-0.17,0-0.341,0.17-0.511c0.157-0.073,0.189-0.11,0.341-0.17c0.17,0,0.341,0,0.341,0c0.17,0,0.341,0,0.341,0
		c0.341,0,0.682-0.17,0.682-0.341c0.17-0.341,0.17-1.023,0.17-2.216L241.564,348.768L241.564,348.768z M241.053,340.587
		c0-0.682,0.341-1.193,0.852-1.534c0.511-0.341,1.023-0.511,1.704-0.511s1.193,0.17,1.704,0.511
		c0.511,0.341,0.682,0.852,0.682,1.534s-0.17,1.193-0.682,1.704c-0.511,0.341-1.023,0.682-1.875,0.682
		c-0.682,0-1.193-0.17-1.704-0.682C241.223,341.951,241.053,341.269,241.053,340.587z"/>
	<path fill="#FFFFFF" d="M264.743,348.768c0,0,0,0.682,0,2.216v2.216v1.363c0,0.511,0,0.682,0,0.852c0,0.17,0.17,0.341,0.341,0.511
		c0.17,0,0.511,0.17,1.023,0.17c0.17,0,0.341,0,0.511,0.17c0.17,0.17,0.17,0.341,0.17,0.341c0,0.341-0.341,0.511-0.852,0.511h-6.647
		c-0.511,0-0.852-0.17-0.852-0.511c0-0.17,0.17-0.511,0.511-0.511c0.682-0.17,0.852-0.341,0.852-0.341
		c0.17-0.17,0.341-0.341,0.341-0.511s0-0.511,0-1.023v-1.534v-3.409c0-2.216-0.852-3.409-2.386-3.409
		c-0.852,0-1.534,0.341-2.045,0.682c-0.341,0.17-0.511,0.511-0.511,0.682c0,0.17-0.17,0.682-0.17,1.193v5.795
		c0,0.341,0,0.852,0.17,1.023c0.17,0.341,0.511,0.511,1.363,0.852c0.341,0,0.511,0.17,0.511,0.511c0,0.341-0.17,0.511-0.682,0.511
		h-6.817c-0.682,0-0.852-0.17-0.852-0.511c0-0.341,0.17-0.511,0.682-0.511c0.511-0.17,1.023-0.17,1.193-0.341
		c0.17-0.17,0.341-0.341,0.341-0.682c0-0.511,0-1.023,0-1.704v-4.602c0-0.511,0-0.852-0.17-1.023
		c-0.17-0.17-0.511-0.341-1.023-0.341c-0.17,0-0.341,0-0.511,0c-0.341,0-0.511-0.17-0.511-0.341c0-0.17,0.17-0.341,0.341-0.511
		c0,0,0.178-0.119,0.341-0.17c0.155-0.049,0.271-0.086,0.511-0.17c0.511-0.17,1.193-0.341,1.875-0.682
		c0.682-0.341,1.363-0.682,1.704-1.193c0.341-0.341,0.682-0.511,1.023-0.511s0.341,0.341,0.341,1.023v1.193
		c0.682-0.511,1.534-1.023,2.557-1.534c0.682-0.341,1.363-0.341,2.216-0.341c1.363,0,2.557,0.341,3.579,1.193
		c0.511,0.341,0.852,0.852,1.023,1.363C264.573,347.064,264.743,347.916,264.743,348.768z"/>
	<path fill="#FFFFFF" d="M272.243,349.791c0,1.023,0.17,1.875,0.682,2.897c0.511,0.852,1.023,1.534,1.875,2.216
		c0.852,0.511,1.704,0.852,2.557,0.852s1.704-0.17,2.557-0.682c0.341-0.17,0.511-0.341,0.682-0.341c0.17,0,0.341,0.17,0.341,0.341
		c0,0.852-0.852,1.534-2.727,2.216c-0.852,0.341-1.704,0.511-2.727,0.511c-2.897,0-4.943-1.023-6.477-2.897
		c-0.682-1.023-1.023-2.216-1.023-3.75c0-1.023,0.17-2.045,0.852-2.897c0.682-1.193,1.875-2.216,3.409-2.897
		c1.363-0.682,2.897-1.023,4.431-1.023c1.363,0,2.557,0.341,3.409,0.852c0.17,0.17,0.511,0.17,0.682,0.341
		c0.17,0.17,0.17,0.511,0.17,0.852c0,0.511,0,1.023-0.17,1.534c-0.17,0.682-0.511,1.023-0.852,1.023
		c-0.341,0-0.682-0.17-0.852-0.341c0.128-0.381-0.467-1.978-1.32-2.568c-0.413-0.267-1.066-0.5-1.407-0.5
		c-1.193,0-1.875,0.598-2.913,1.568C272.584,347.878,272.243,348.939,272.243,349.791z"/>
	<path fill="#FFFFFF" d="M287.241,349.62c0,0-0.17,0.341-0.17,0.511c0,0.852,0.203,1.936,0.615,2.609
		c0.437,0.753,1.09,1.481,1.771,1.992c0.682,0.511,1.534,0.682,2.557,0.682c0.852,0,1.875-0.341,2.897-1.023
		c0.341-0.17,0.682-0.341,0.852-0.341s0.17,0,0.341,0.17c0.17,0,0.17,0.17,0.17,0.17c0,0.511-0.511,1.023-1.534,1.534
		c-0.682,0.511-1.363,0.852-2.045,1.023c-0.852,0.341-1.704,0.511-2.557,0.511c-1.193,0-2.386-0.341-3.579-0.852
		c-1.193-0.511-2.045-1.363-2.727-2.386c-0.682-1.023-1.023-2.216-1.023-3.75c0-1.875,0.682-3.409,2.216-4.602
		c1.534-1.193,3.238-1.875,5.454-1.875c0.852,0,1.704,0.17,2.727,0.511c0.852,0.341,1.704,0.852,2.216,1.363
		c0.682,0.682,1.023,1.363,1.023,2.386c0,0.511-0.17,0.682-0.341,0.852s-0.511,0.17-1.193,0.17h-7.158
		C287.752,349.28,287.241,349.45,287.241,349.62z M287.412,348.086c0,0.17,0.017,0.267,0.17,0.341c0.15,0.072,0.341,0.17,0.682,0.17
		c0.682,0,1.023,0,1.363,0h1.193c0.341,0,0.682-0.17,1.023-0.341c0.341-0.17,0.341-0.511,0.341-1.023s-0.17-1.023-0.511-1.363
		c-0.341-0.341-0.852-0.511-1.363-0.511c-0.852,0-1.534,0.341-2.216,0.852C287.752,346.553,287.412,347.234,287.412,348.086z"/>
	<path fill="#FFFFFF" d="M311.614,342.121c-0.17,0-0.682,0.17-1.534,0.341c-0.682,0.17-1.193,0.341-1.704,0.341
		c-0.341,0-0.682-0.17-0.682-0.511c0-0.341,0.341-0.682,1.193-0.852c0.341-0.17,0.511-0.17,0.682-0.17
		c2.557-0.511,4.431-1.193,5.965-1.875c0.17-0.17,0.341-0.17,0.511-0.17c0.341,0,0.511,0.341,0.511,1.193V353.2
		c0,0.341,0,0.511,0,0.682c0,0.511,0,1.023,0.17,1.534c0,0.17,0.17,0.341,0.511,0.511c0.341,0.17,0.682,0.17,1.193,0.17
		c0.511,0,0.852,0,1.193,0.17c0.17,0,0.341,0.17,0.341,0.511c0,0.511-0.341,0.682-1.023,0.682l-2.216-0.17
		c-0.682,0-1.737,0.03-3.138-0.065l-1.975,0.065l-2.045,0.17c-0.682,0-0.852-0.17-0.852-0.682c0-0.341,0.17-0.511,0.511-0.511
		c0.17,0,0.341,0,0.852,0c0.852,0,1.363-0.17,1.704-0.341c0.511-0.341,0.682-0.682,0.682-1.534v-11.249
		C312.466,343.144,312.125,342.121,311.614,342.121z"/>
	<path fill="#FFFFFF" d="M329.169,340.417c-0.852,0-1.363,0.341-1.875,1.193c-0.341,0.682-0.511,1.363-0.511,2.216
		c0,0.852,0.17,1.875,0.511,2.727c0.682,2.045,1.704,3.068,3.068,3.068h0.682h0.341c0.17,0,0.341,0.17,0.341,0.341
		c0,0.511-0.511,0.852-1.363,1.023c-0.682,0.17-1.363,0.17-1.875,0.17c-1.363,0-2.727-0.511-3.75-1.704
		c-1.023-1.023-1.534-2.386-1.534-3.75c0-1.704,0.682-3.238,1.875-4.431c1.193-1.363,2.897-2.045,4.772-2.045
		c2.216,0,3.92,0.852,5.284,2.386c1.363,1.534,1.875,3.238,1.875,5.454c0,1.875-0.511,3.75-1.534,5.624
		c-1.023,1.704-2.216,3.068-3.92,4.261c-1.023,0.682-2.216,1.534-3.579,2.216c-1.704,0.852-2.897,1.363-3.75,1.363
		c-0.17,0-0.17,0-0.341-0.17c0,0-0.17-0.17-0.17-0.341c0-0.341,0.341-0.511,1.023-0.682c2.897-1.023,5.284-3.068,6.988-6.136
		c0.852-1.704,1.363-3.579,1.363-5.624c0-1.023-0.17-2.045-0.511-3.068c-0.341-1.193-0.852-2.045-1.363-2.727
		C330.532,340.758,329.85,340.417,329.169,340.417z"/>
	<path fill="#FFFFFF" d="M347.746,356.608c1.534,0,2.216-1.193,2.216-3.75c0-2.216-0.511-3.92-1.534-5.113
		c-0.511-0.511-1.023-0.852-1.534-0.852c-0.341,0-0.682,0.17-1.193,0.341c-0.17,0.17-0.341,0.17-0.511,0.17
		c-0.17,0-0.17,0-0.17-0.17c0,0-0.17-0.17-0.17-0.341c0-0.341,0.341-0.511,0.852-0.852c0.852-0.511,1.704-0.852,2.727-0.852
		c1.023,0,1.875,0.341,2.727,0.852c0.852,0.511,1.534,1.363,1.875,2.216c0.511,0.852,0.682,1.875,0.682,3.068
		c0,1.875-0.682,3.409-2.045,4.602c-1.363,1.193-3.068,1.875-4.772,1.875c-1.363,0-2.557-0.341-3.75-1.023
		c-1.704-1.193-2.727-2.897-3.238-4.943c-0.17-0.682-0.17-1.364-0.17-2.216c0-2.216,0.511-4.261,1.704-6.136
		c1.363-2.216,3.238-3.92,5.624-5.284c0.682-0.341,1.363-0.682,2.045-1.023c1.363-0.511,2.557-0.852,3.409-0.852
		c0.511,0,0.682,0.17,0.682,0.511c0,0.17-0.511,0.341-1.534,0.682c-0.682,0.17-1.193,0.511-1.875,0.682s-1.193,0.682-1.875,1.193
		c-0.17,0.17-0.511,0.511-1.023,1.023c-0.17,0.341-0.511,0.682-1.023,1.193c-1.363,2.045-2.045,4.261-2.045,6.988
		c0,1.193,0.17,2.386,0.511,3.579c0.341,1.364,1.023,2.557,1.704,3.238C346.553,356.267,347.235,356.608,347.746,356.608z"/>
	<path fill="#FFFFFF" d="M366.153,346.723c0,0.341,0.341,0.682,0.852,0.852c0.678,0.283,1.114,0.389,1.363,0.511
		c1.193,1.023,1.875,2.386,1.875,3.92c0,1.023-0.341,2.045-1.023,2.897c-0.682,0.852-1.534,1.363-2.557,1.875
		c-1.193,0.511-2.386,0.852-3.92,0.852c-1.193,0-2.386-0.17-3.409-0.511c-2.386-0.852-3.579-2.216-3.579-4.09
		c0-0.852,0.17-1.534,0.511-2.045c0.17-0.341,0.341-0.511,0.511-0.682c0.511-0.341,1.193-0.682,2.045-1.193
		c0.511-0.17,0.682-0.341,0.852-0.341l-0.17-0.17c-0.17-0.17-0.341-0.17-0.511-0.341c-0.17-0.17-0.511-0.341-1.193-0.852
		c-1.023-0.852-1.534-2.045-1.534-3.238c0-2.045,1.023-3.409,3.068-4.431c1.023-0.511,2.216-0.682,3.579-0.682
		c2.557,0,4.431,0.682,5.454,2.045c0.511,0.682,0.682,1.193,0.682,2.045c0,1.534-0.782,2.634-2.487,3.145
		C366.394,346.63,366.153,346.723,366.153,346.723z M361.211,349.45c-0.511,0-0.852,0.511-1.363,1.534
		c-0.17,0.511-0.341,1.023-0.341,1.704c0,1.363,0.511,2.557,1.534,3.238c0.511,0.341,1.193,0.511,2.045,0.511
		c0.852,0,1.534-0.341,2.216-0.852s1.023-1.193,1.023-2.045c0-0.341-0.511-1.875-1.193-2.386c-0.341-0.341-1.023-0.682-1.875-1.193
		C362.233,349.62,361.552,349.45,361.211,349.45z M364.79,346.212c0.341,0,0.682-0.511,1.023-1.364
		c0.17-0.341,0.17-0.682,0.17-1.193c0-1.023-0.341-1.875-0.852-2.557s-1.363-1.023-2.216-1.023c-0.682,0-1.363,0.17-2.045,0.682
		c-0.511,0.511-0.852,1.023-0.852,1.875c0,0.682,0.341,1.193,0.852,1.704c0.17,0.17,0.682,0.511,1.193,0.682
		c0.341,0.17,0.852,0.341,1.534,0.682C364.449,346.212,364.79,346.212,364.79,346.212z"/>
	<path fill-rule="evenodd" clip-rule="evenodd" fill="#FFFFFF" d="M220.089,159.242c-1.534-3.92-1.875-5.454-6.136-4.602
		c-4.261,1.023-3.579,7.329-3.579,7.329c17.725,34.087,41.587,34.94,41.587,34.94C229.293,190.091,221.623,163.162,220.089,159.242z
		"/>
	<path fill-rule="evenodd" clip-rule="evenodd" fill="#FFFFFF" d="M318.261,114.417c-9.374,3.75-17.555,8.522-8.522,12.783
		c9.204,4.09,13.294,4.602,18.066,4.431c4.772-0.17,13.124,1.875,11.078,13.976c-2.216,12.101-10.397,60.505-76.185,53.176
		c0,0,21.475,16.703,57.608-3.409c35.962-20.112,41.416-48.404,39.371-62.721c0,0-0.682-20.282-18.237-21.986
		C341.44,110.838,331.043,109.304,318.261,114.417z"/>
	<path fill-rule="evenodd" clip-rule="evenodd" fill="#FFFFFF" d="M291.672,129.757c-84.707,16.532-81.639-2.557-44.825-16.192
		s61.187-4.09,83.173-5.284s10.567-11.249,10.567-11.249c-11.931-10.567-20.452-5.965-33.746-6.647
		c-13.124-0.852-58.46,13.124-67.834,17.044c-9.374,4.09-38.519,11.59-29.997,30.508
		C217.532,157.027,291.672,129.757,291.672,129.757z"/>
	<path fill-rule="evenodd" clip-rule="evenodd" fill="#FFFFFF" d="M369.903,123.621c4.431-1.193,12.442,8.011,6.306,14.658
		c-5.965,6.647-10.567,12.101-17.044,16.192c0,0,35.621-13.976,30.338-30.508c-5.284-16.532-9.033-16.362-12.783-15.851
		c0,0-19.771,2.386-17.214,10.567C362.063,126.689,365.472,124.984,369.903,123.621z"/>
	<path fill-rule="evenodd" clip-rule="evenodd" fill="#FFFFFF" d="M356.268,197.932c-12.442,6.988-34.428,12.101-43.802,14.317
		c-9.374,2.386-23.35,2.727-39.882,5.965c-22.498,4.261-66.13-8.522-68.345-9.033c-4.602-1.193-10.738-4.431-10.226-2.216
		c0.852,2.727,9.033,5.454,9.033,5.454c5.454,3.068,26.247,5.965,34.94,7.84c8.692,1.704,12.101,3.238,23.52,2.557
		c11.419-0.852,16.362,2.897,50.961-2.386c34.428-5.284,43.461-15.68,63.914-25.736c20.452-10.056,25.054-18.919,25.054-18.919
		C386.606,190.432,368.88,190.944,356.268,197.932z"/>
	<path fill-rule="evenodd" clip-rule="evenodd" fill="#FFFFFF" d="M229.122,154.47c0,0,8.351,0.682,17.555-1.534
		c4.602-1.023,9.033-4.261,8.181,0.341c-0.511,2.386,0,10.056,4.943,18.407c4.261,7.329,7.158,9.204,14.487,12.271
		c11.59,4.772,16.021,1.193,19.43,3.068c0,0-9.374,7.158-31.872,1.363s-31.701-16.532-37.155-31.872
		C224.52,156.515,222.986,152.936,229.122,154.47z"/>
</g>
<g>
	<g>
		<path fill="#08713C" d="M858.416,78.064c54.92,0.13,109.84,0.09,164.76,0.02c-0.01,7.05-0.12,14.1,0.08,21.14
			c19.66,4.8,38.84,11.79,56.84,21.06c16.1,8.45,31.43,18.71,44.12,31.83c13.33,13.44,23.77,30.34,27.1,49.17
			c3.32,17.58-0.26,36.07-8.76,51.7c-9.46,17.41-24.03,31.49-40.12,42.79c-32.15,22.21-70.23,34.47-108.57,40.56
			c-48.76,7.33-99.18,5.07-146.73-8.26c-24.3-6.87-47.88-16.85-68.85-31.03c-17.69-12.05-33.7-27.47-43.36-46.8
			c-8.51-16.81-11.03-36.75-6-54.99c4.41-17.42,15.09-32.56,27.62-45.15c27.97-26.71,64.62-42.57,101.83-51.52
			C858.426,91.744,858.326,84.904,858.416,78.064z M886.976,106.494c-0.21,55.88,0.17,111.77-0.2,167.65
			c-9.26-0.04-18.52-0.01-27.79-0.01c-0.38-54.37,0.09-108.75-0.24-163.13c-23.84,8.95-47.21,21.69-63.52,41.72
			c-10.48,12.77-17.49,29.01-16.84,45.74c0.31,18.59,9.8,35.85,22.56,48.91c17.46,17.78,40.21,29.42,63.68,37.13
			c25.23,8.06,51.81,11.6,78.26,11.35c38.55-0.75,77.82-9.09,110.99-29.41c16.32-10.19,31.34-23.68,39.87-41.21
			c6.76-13.48,8.77-29.42,4.78-44.03c-4.42-17.24-15.85-31.84-29.33-43.06c-13.62-11.34-29.47-19.68-45.96-25.98
			c-0.15,23.03-0.14,46.07-0.01,69.11c-28.07,0.47-56.15-0.06-84.22,0.27c-0.26-9.49-0.28-19,0.04-28.49
			c18.71,0.1,37.42,0.09,56.12,0.01c0-15.51-0.1-31.03,0.04-46.54C959.126,106.364,923.046,106.434,886.976,106.494z
			 M778.826,143.194c-17.95,13.82-33.51,32.52-38.52,55.07c-3.99,16.9-0.62,34.94,7.63,50.06c9.58,17.37,24.56,31.21,40.99,42.02
			c20.99,13.75,44.59,23.17,68.82,29.44c44.82,11.53,92.08,13.04,137.7,5.52c36.93-6.41,73.67-18.81,103.88-41.54
			c14.57-11.19,27.52-25.19,34.89-42.21c6.64-14.99,7.85-32.33,3.15-48.05c-4.65-15.65-14.29-29.49-26.12-40.6
			c-15.3-14.79-33.99-25.65-53.47-33.96c8.28,5.39,16.25,11.33,23.28,18.31c12.76,12.32,22.71,28.09,26.1,45.66
			c3.15,16.1,0.35,33.15-7.27,47.64c-8.91,17.24-23.44,30.93-39.47,41.55c-37.29,24.09-82.57,33.35-126.53,32.56
			c-24.48-0.49-48.98-4.3-72.23-12.05c-22.8-7.63-44.79-18.97-62.31-35.64c-13.82-12.93-24.69-29.75-27.86-48.64
			c-3.05-17.05,0.82-34.92,9.5-49.79c9.65-16.38,24.09-29.53,40.16-39.47C806.046,125.154,791.716,133.254,778.826,143.194z"/>
	</g>
	<path fill="#08713C" d="M899.606,155.114c9.32-0.02,18.65,0.02,27.98-0.02c0.06,30.19,0.01,60.37,0.03,90.56
		c31.85,0.06,63.71-0.08,95.57,0.07c-0.07,9.44-0.06,18.89,0,28.34c-41.2,0.11-82.41,0.07-123.61,0.02
		C899.646,234.424,899.596,194.774,899.606,155.114z"/>
	<g>
		<path fill="#08713C" d="M640.986,362.874c16.97-0.71,33.95,0.27,50.93,0c3.4,0.14,7.57-0.82,10.03,2.22
			c4.69,4.57,2.83,11.5,3.17,17.32c-0.2,4.22,0.6,8.62-0.75,12.71c-1.6,3.58-5.45,6.06-9.38,5.99c-9.32,0-18.64,0.05-27.97-0.04
			c0.18,6.69-1.18,13.79,1.64,20.11c-9.02-0.19-18.04,0.08-27.06-0.15c0.45-0.18,1.34-0.53,1.79-0.71c0.68-2.21,1.26-4.49,1.21-6.82
			c0.02-14.05,0.01-28.1,0.01-42.15C644.696,368.184,643.976,364.574,640.986,362.874z M666.926,372.634
			c0.01,5.89-0.05,11.79,0.03,17.69c5.04-0.17,10.16,0.5,15.15-0.47c0.25-0.55,0.75-1.65,1-2.2c-0.11-4.75,0.51-9.57-0.65-14.24
			C677.346,372.484,672.096,372.854,666.926,372.634z"/>
	</g>
	<path fill="#08713C" d="M712.416,362.674c9.43-0.01,18.86-0.14,28.29,0.08c-1.8,2.17-2.9,4.83-3.02,7.66
		c-0.25,5.41-0.01,10.83-0.12,16.24c5.32,0.02,10.64-0.04,15.96,0.03c-0.49-7.96,1.88-16.84-2.71-23.97
		c9.32-0.04,18.66-0.27,27.99,0.14c-1.74,2.11-2.89,4.67-2.82,7.45c-0.09,14.69-0.01,29.39-0.04,44.09
		c0.06,2.43,0.07,5.53,2.66,6.73c-9.25-0.07-18.5,0.11-27.74-0.08c0.4-0.25,1.19-0.75,1.59-1c2.07-7.33,0.77-15.04,1.16-22.54
		c-5.37-0.06-10.73-0.11-16.09,0.02c0.68,7.66-1.29,15.7,1.53,23.04c0.49,0.11,1.45,0.32,1.93,0.42c-9.31,0.3-18.62,0.07-27.92,0.13
		c1.96-2.05,2.38-4.94,2.33-7.66c-0.05-12.35-0.03-24.7-0.02-37.04C715.576,371.674,715.526,366.564,712.416,362.674z"/>
	<path fill="#08713C" d="M789.196,362.834c9.38-0.38,18.77-0.18,28.16-0.1c-2.02,2.82-3,6.23-2.95,9.69
		c0.03,12.12-0.09,24.25,0.07,36.37c6.14,2.56,12.99,1.21,19.45,1.57c2.32-0.31,5.52,0.42,7.1-1.73c0.3-12.08,0.01-24.19,0.14-36.28
		c-0.14-3.36-0.26-7.67-3.66-9.45c6.07-0.4,12.17-0.36,18.25-0.06c-2.92,3.08-3.04,7.52-3.14,11.53c-0.05,11.7,0.08,23.4-0.04,35.1
		c-0.03,6.54-5.7,12.11-12.18,12.33c-11.51,0.23-23.03,0.02-34.54,0.12c-4.3,0.15-9.23-1.07-11.67-4.92
		c-1.63-2.16-2.07-4.92-2.03-7.56c0.02-12.69,0.01-25.37,0.01-38.06C792.166,368.294,791.346,365.144,789.196,362.834z"/>
	<path fill="#08713C" d="M866.466,377.164c0.35-7.87,7.47-14.61,15.35-14.49c11.23-0.07,22.45-0.03,33.68,0
		c0.87,4.54,1.71,9.1,2.34,13.69c-1.44-1.39-2.6-3.72-4.87-3.69c-6.65-0.03-13.3-0.11-19.94,0.05c-2.92,0.04-4.98,2.98-4.83,5.75
		c-0.12,8.64,0,17.28-0.05,25.93c0.02,2.27-0.03,5.11,2.17,6.49c1.51,1.39,3.67,0.9,5.55,1.04c5.74-0.07,11.48,0.01,17.23-0.03
		c2.41,0.35,3.96-1.78,5.63-3.11c-1.1,4.11-0.64,8.86-2.4,12.63c-11.52,0.03-23.05,0.09-34.57-0.04c-6.15-0.04-12-4.01-14.23-9.73
		c-1.59-3.9-1.06-8.18-1.14-12.27C866.456,391.974,866.246,384.564,866.466,377.164z"/>
	<path fill="#08713C" d="M962.396,363.024c9.61-0.78,19.3-0.27,28.94-0.27c-2.95,3.13-3.19,7.56-3.17,11.63
		c0.02,12.11-0.07,24.22,0.05,36.32c8.9-0.12,17.8-0.03,26.71-0.04c2.37,0.29,4.15-1.5,5.92-2.77c-0.53,4.4-1.25,8.77-1.77,13.17
		c-18.34,0.16-36.68-0.03-55.02,0.11c0.91-1.81,1.83-3.68,1.75-5.75c0.04-12,0-24.01,0.01-36.01c-0.13-5.09,0.66-10.39-1.51-15.18
		C963.656,363.824,963.016,363.424,962.396,363.024z"/>
	<g>
		<path fill="#08713C" d="M1038.166,362.734c11.21-0.16,22.43-0.12,33.65-0.02c7.59,0.27,14.07,6.86,14.49,14.39
			c0.25,7.1,0.02,14.2,0.1,21.3c-0.04,5.53,0.73,11.75-2.92,16.43c-3.16,4.75-9.07,6.95-14.62,6.64c-10-0.08-20,0.05-29.99-0.06
			c-8.13,0.09-15.34-7.03-15.44-15.14c-0.12-9.32-0.08-18.65-0.03-27.97C1023.376,370.354,1030.056,362.854,1038.166,362.734z
			 M1048.416,373.064c-2.02,0.91-3.33,3.07-3.02,5.3c0.03,9.69-0.1,19.38,0.06,29.07c0.01,3.79,4.34,4.88,7.41,4.5
			c4.02-0.21,10.1,1.33,11.75-3.68c0.58-9.94,0.07-19.94,0.22-29.9c0.34-2.83-1.96-5.75-4.9-5.63
			C1056.116,372.744,1052.146,372.194,1048.416,373.064z"/>
	</g>
	<path fill="#08713C" d="M1097.076,362.634c10.66-0.1,21.3,0.36,31.96,0.28c7.32,14.91,14.83,29.75,21.82,44.82
		c-0.1-12.12,0.16-24.25-0.07-36.37c-0.02-2.49-0.86-4.87-1.65-7.19c-0.49-0.29-1.46-0.88-1.94-1.17
		c5.69-0.71,11.44-0.25,17.16-0.28c-2.69,2.85-3.24,6.88-3.21,10.65c-0.03,15.9,0.05,31.81-0.04,47.72c-9.5,0-18.99,0.12-28.48-0.05
		c-7.18-15.11-14.73-30.05-22.01-45.11c0,12.48,0.02,24.96-0.01,37.44c-0.06,2.16,0.35,4.29,0.84,6.39c0.43,0.31,1.3,0.92,1.73,1.23
		c-5,0.23-10.01,0.07-15.02,0.17c1.42-2.34,2.11-5.02,2.01-7.75c-0.02-13.66-0.01-27.33-0.01-41
		C1100.246,368.894,1099.326,365.394,1097.076,362.634z"/>
	<path fill="#08713C" d="M1191.156,362.704c14.38-0.12,28.77-0.07,43.16-0.01c0.38,4.57,0.89,9.14,0.96,13.73
		c-1-1.21-2.03-2.41-2.99-3.63c-9.44-0.29-18.89-0.11-28.34-0.12c-3.15-0.41-6.27,2.41-5.8,5.64c0.04,9.38,0.01,18.76,0.01,28.14
		c-0.29,2.19,1.22,4.05,2.99,5.14c4.33,0.68,8.75,0.25,13.12,0.21c0.25-5.36,0.06-10.71,0.14-16.06c-3.66-0.08-7.48-0.5-10.86,1.21
		c-0.27,0.54-0.8,1.62-1.07,2.16c-0.45-4.06-0.35-8.15-0.28-12.23c12.46,0.07,24.92-0.15,37.37,0.11
		c-1.41,4.06-4.06,7.92-3.64,12.41c0.09,5.35-0.06,10.71,0.05,16.07c-0.06,2.53,1.72,4.59,3.57,6.1c-6.8-0.2-13.6-0.16-20.4-0.05
		c-0.28-1.29-0.55-2.57-0.8-3.84c-0.71,1.16-1.15,2.86-2.73,3.11c-4.79,1.25-9.82,0.44-14.7,0.65c-5.82-0.22-12.33,1-17.46-2.45
		c-4.61-2.82-7.35-8.17-7.27-13.53c0-9.33-0.11-18.66,0.05-27.98C1176.436,369.694,1183.326,362.774,1191.156,362.704z"/>
</g>
</svg>
